<svg xmlns="http://www.w3.org/2000/svg" data-name="Layer 1" viewBox="0 0 64 64" id="burger"><path fill="#e09742" d="M13.43,59a8.17,8.17,0,0,1-7.85-7.84L5.51,50h53l-.07,1.07A8.17,8.17,0,0,1,50.57,59Z"></path><path fill="#c61e24" d="M9.5 50a4.19 4.19 0 0 1-4.2-4.18v-.15a4.19 4.19 0 0 1 4.2-4.19H33.09L39 46.81a.9.9 0 0 0 .58.23 1 1 0 0 0 .6-.23l5.92-5.34H54.5a4.19 4.19 0 0 1 4.2 4.19v.15A4.19 4.19 0 0 1 54.5 50zM9.5 38.72a4.2 4.2 0 0 1-4.2-4.19v-.15a4.2 4.2 0 0 1 4.2-4.19h45a4.2 4.2 0 0 1 4.2 4.19v.15a4.2 4.2 0 0 1-4.2 4.19z"></path><polygon fill="#e5e04f" points="33.1 41.47 7.37 41.47 7.37 38.7 56.63 38.7 56.63 41.47 46.12 41.47 39.61 47.34 33.1 41.47"></polygon><path fill="#88a50f" d="M50.28,38.2a6.38,6.38,0,0,1-4.56-1.91,6.42,6.42,0,0,0-9.15,0A6.38,6.38,0,0,1,32,38.2a6,6,0,0,1-2.72-.61,9.63,9.63,0,0,1-1.83-1.29,6.4,6.4,0,0,0-4.59-1.93,6.32,6.32,0,0,0-4.57,1.91,6.39,6.39,0,0,1-9.12,0,7.2,7.2,0,0,0-2.88-1.71,2.25,2.25,0,0,0-.39-.09l-.82-.16v-.84a3.79,3.79,0,0,1,.68-2.34,2.56,2.56,0,0,1,2.15-1H52.29c.36,0,.75,0,1.23,0h2.56a2.6,2.6,0,0,1,2.16,1,3.85,3.85,0,0,1,.67,2.34v.84l-.82.16a1.55,1.55,0,0,0-.31.07,7.12,7.12,0,0,0-2.94,1.72A6.42,6.42,0,0,1,50.28,38.2Z"></path><path fill="#e09742" d="M9.45,30.18H7.94A2.46,2.46,0,0,1,6,29.28a2.61,2.61,0,0,1-.54-2.06,26.94,26.94,0,0,1,53,0A2.56,2.56,0,0,1,58,29.27a2.48,2.48,0,0,1-1.93.91H9.45Z"></path><path d="M24.58,16A1.42,1.42,0,1,1,26,17.46,1.44,1.44,0,0,1,24.58,16ZM38,17.46A1.45,1.45,0,1,0,36.58,16,1.43,1.43,0,0,0,38,17.46Zm-18,5A1.44,1.44,0,1,0,18.58,21,1.43,1.43,0,0,0,20,22.48Zm24,0A1.44,1.44,0,1,0,42.58,21,1.43,1.43,0,0,0,44,22.48Zm-12,0A1.44,1.44,0,1,0,30.58,21,1.43,1.43,0,0,0,32,22.48ZM57.62,38.57a.53.53,0,0,1,0,.13v2.81a5.14,5.14,0,0,1,2.07,4.14v.16a5.17,5.17,0,0,1-1.2,3.32,1.41,1.41,0,0,1,.94,1.33c0,5.23-4,9.48-8.87,9.48H13.43c-4.89,0-8.87-4.25-8.87-9.48a1.41,1.41,0,0,1,.94-1.33,5.17,5.17,0,0,1-1.2-3.32v-.16a5.14,5.14,0,0,1,2.07-4.14V38.7a.53.53,0,0,1,0-.13,4.93,4.93,0,0,1-1.14-1.32,4.62,4.62,0,0,1-.72-1.89,5,5,0,0,1-.44-1.85,4.47,4.47,0,0,1,.89-3,3.67,3.67,0,0,1,.43-.47c-.05,0-.09-.1-.14-.15a3.5,3.5,0,0,1-.76-2.88,27.94,27.94,0,0,1,55,0,3.5,3.5,0,0,1-.76,2.88c-.05.05-.09.11-.14.15a3.67,3.67,0,0,1,.43.47,4.47,4.47,0,0,1,.89,3,5,5,0,0,1-.44,1.85,4.62,4.62,0,0,1-.72,1.89A4.93,4.93,0,0,1,57.62,38.57ZM6.79,28.64a1.45,1.45,0,0,0,1.15.55H56.06a1.45,1.45,0,0,0,1.15-.55,1.54,1.54,0,0,0,.32-1.25,25.94,25.94,0,0,0-51.06,0A1.54,1.54,0,0,0,6.79,28.64ZM57.42,51.05H6.58a7.14,7.14,0,0,0,6.85,6.89H50.57A7.14,7.14,0,0,0,57.42,51.05ZM54.5,42.46h-8l-5.64,5.1a1.88,1.88,0,0,1-2.51,0l-5.65-5.1H9.5a3.2,3.2,0,0,0-3.2,3.19v.16A3.2,3.2,0,0,0,9.5,49h45a3.2,3.2,0,0,0,3.2-3.19v-.16A3.2,3.2,0,0,0,54.5,42.46ZM8.37,39.7v.76H33.48l2.22,2L39.61,46l3.91-3.54,2.22-2h9.89V39.7H8.37Zm19.23-2c-.29-.2-.56-.44-.82-.65a5.41,5.41,0,0,0-7.84,0c-.26.21-.53.45-.82.65Zm18.28,0c-.29-.2-.56-.44-.82-.65a5.41,5.41,0,0,0-7.84,0c-.26.21-.53.45-.82.65Zm11.41-1.91a8.22,8.22,0,0,0-1.8,1.26c-.26.21-.53.44-.81.64A3.21,3.21,0,0,0,57.29,35.79Zm-48,1.9c-.28-.2-.55-.43-.81-.64a8.22,8.22,0,0,0-1.8-1.26A3.21,3.21,0,0,0,9.32,37.69ZM57.91,33.5a3,3,0,0,0-.47-1.75,1.6,1.6,0,0,0-1.38-.56H7.94a1.6,1.6,0,0,0-1.38.56,3,3,0,0,0-.47,1.75c.16,0,.31.07.45.12A8.1,8.1,0,0,1,9.8,35.51a5.43,5.43,0,0,0,7.85,0,7.41,7.41,0,0,1,10.42,0,8.9,8.9,0,0,0,1.65,1.18,4.84,4.84,0,0,0,2.28.5,5.41,5.41,0,0,0,3.93-1.68,7.41,7.41,0,0,1,10.42,0,5.43,5.43,0,0,0,7.85,0,8.1,8.1,0,0,1,3.26-1.89C57.6,33.57,57.75,33.54,57.91,33.5Z"></path></svg>